# Blender v2.83.0 OBJ File: ''
# www.blender.org
mtllib GrassBunch5.mtl
o GrassBunch5_Circle.036
v -0.055085 0.015879 -0.009892
v 0.004399 -0.007995 0.101425
v 0.070946 -0.008734 -0.006716
v 0.023565 0.251221 0.036899
v 0.064829 0.182193 0.137275
v 0.131343 0.181454 0.029189
v 0.256844 0.439496 0.179167
v 0.138450 0.411045 0.106504
v 0.222069 0.361445 0.102193
v 0.171983 0.362001 0.183583
v -0.042157 -0.018123 -0.117050
v -0.162934 -0.013555 -0.024547
v -0.024520 -0.019634 0.034117
v -0.047475 0.277884 -0.073826
v -0.165570 0.224658 0.006460
v -0.027229 0.218582 0.065093
v -0.139762 0.568777 0.174063
v -0.082853 0.498423 0.032499
v -0.068438 0.457929 0.139499
v -0.172611 0.462504 0.095348
v 0.001288 0.016612 -0.018291
v -0.127920 -0.002327 -0.037427
v -0.043912 -0.022493 0.099384
v -0.054736 0.157095 0.036817
v -0.164530 0.117300 0.002685
v -0.080521 0.097135 0.139496
v -0.319886 0.358506 0.229318
v -0.198483 0.314906 0.148344
v -0.198883 0.264196 0.216879
v -0.265402 0.280163 0.108551
v -0.071435 -0.023286 -0.114537
v -0.059263 0.063096 0.013826
v 0.004439 0.058729 -0.006816
v -0.077048 0.138134 -0.166015
v -0.066152 0.185201 -0.030372
v -0.000757 0.180718 -0.051562
v -0.096400 0.386525 -0.278293
v -0.078453 0.212175 -0.186017
v -0.033918 0.320028 -0.141252
v -0.074713 0.322825 -0.128033
vn 0.0513 0.1743 -0.9833
vn 0.7978 -0.3465 0.4933
vn -0.8536 0.1844 0.4872
vn 0.3132 0.5925 -0.7422
vn 0.6311 -0.6688 0.3930
vn -0.5178 0.6017 0.6081
vn -0.7762 0.3225 0.5418
vn 0.7150 -0.5403 0.4437
vn 0.1358 0.3124 -0.9402
vn 0.9919 0.0320 -0.1228
vn -0.3918 -0.1230 0.9118
vn -0.5966 0.1017 -0.7961
vn 0.8496 0.5209 0.0827
vn -0.3600 -0.4809 0.7995
vn -0.6091 0.5850 -0.5356
vn -0.6206 0.2579 -0.7405
vn -0.3803 -0.3336 0.8626
vn 0.9803 0.1876 -0.0620
vn 0.9078 0.1857 0.3759
vn -0.8080 -0.3941 0.4380
vn 0.1124 0.3766 -0.9195
vn 0.5659 0.6612 0.4925
vn -0.5808 -0.7772 0.2421
vn -0.0860 0.8177 -0.5692
vn 0.0797 0.6003 -0.7958
vn -0.6915 -0.6427 0.3299
vn 0.8131 0.4242 0.3986
vn 0.8517 -0.1391 -0.5053
vn 0.3110 0.3389 0.8879
vn -0.9956 -0.0124 0.0933
vn 0.8661 -0.1613 -0.4731
vn 0.1800 0.9147 0.3618
vn -0.9911 -0.0339 0.1287
vn -0.9969 -0.0035 0.0782
vn 0.2890 0.5659 0.7722
vn 0.8451 -0.1298 -0.5187
usemtl grass.005
s 1
f 1//1 4//1 6//1 3//1
f 3//2 6//2 5//2 2//2
f 2//3 5//3 4//3 1//3
f 9//4 8//4 7//4
f 10//5 9//5 7//5
f 8//6 10//6 7//6
f 4//7 5//7 10//7 8//7
f 5//8 6//8 9//8 10//8
f 6//9 4//9 8//9 9//9
f 11//10 14//10 16//10 13//10
f 13//11 16//11 15//11 12//11
f 12//12 15//12 14//12 11//12
f 19//13 18//13 17//13
f 20//14 19//14 17//14
f 18//15 20//15 17//15
f 14//16 15//16 20//16 18//16
f 15//17 16//17 19//17 20//17
f 16//18 14//18 18//18 19//18
f 21//19 24//19 26//19 23//19
f 23//20 26//20 25//20 22//20
f 22//21 25//21 24//21 21//21
f 29//22 28//22 27//22
f 30//23 29//23 27//23
f 28//24 30//24 27//24
f 24//25 25//25 30//25 28//25
f 25//26 26//26 29//26 30//26
f 26//27 24//27 28//27 29//27
f 31//28 34//28 36//28 33//28
f 33//29 36//29 35//29 32//29
f 32//30 35//30 34//30 31//30
f 39//31 38//31 37//31
f 40//32 39//32 37//32
f 38//33 40//33 37//33
f 34//34 35//34 40//34 38//34
f 35//35 36//35 39//35 40//35
f 36//36 34//36 38//36 39//36
