# Blender v2.83.0 OBJ File: ''
# www.blender.org
mtllib Grass1.mtl
o GrassBunch1_Circle.022
v 0.207900 0.001607 0.135156
v 0.139141 0.006914 0.275353
v 0.276659 0.006914 0.275353
v 0.207900 0.102128 0.172620
v 0.136835 0.088798 0.297502
v 0.278966 0.088798 0.297502
v 0.207900 0.469018 0.214922
v 0.207900 0.219891 0.154898
v 0.269987 0.289765 0.279560
v 0.145814 0.289765 0.279560
v -0.348561 -0.001835 -0.252432
v -0.330276 0.000676 -0.129319
v -0.233403 0.000676 -0.205212
v -0.329180 0.240857 -0.227693
v -0.316732 0.195944 -0.112083
v -0.219909 0.195944 -0.187936
v -0.197605 0.481478 -0.059746
v -0.274135 0.422439 -0.157432
v -0.190603 0.392050 -0.125899
v -0.263512 0.392050 -0.068781
v 0.164078 -0.003162 -0.300034
v 0.069155 0.001310 -0.233505
v 0.171181 0.001310 -0.184336
v 0.144587 0.195198 -0.259591
v 0.051329 0.178722 -0.197462
v 0.154094 0.178722 -0.147936
v 0.031912 0.547928 -0.025789
v 0.104218 0.393479 -0.175825
v 0.106214 0.400631 -0.082073
v 0.029643 0.400631 -0.118975
v 0.000936 0.001379 0.169132
v -0.126443 0.000000 0.203658
v 0.002736 0.000000 0.301095
v -0.020663 0.158302 0.197768
v -0.137280 0.130139 0.218026
v -0.008101 0.130139 0.315463
v -0.177469 0.441359 0.405657
v -0.099947 0.359973 0.302880
v -0.076753 0.328177 0.378510
v -0.179039 0.328177 0.301358
v -0.028132 0.001607 -0.284982
v -0.096891 0.006914 -0.144785
v 0.040626 0.006914 -0.144785
v -0.028132 0.102128 -0.247519
v -0.099198 0.088798 -0.122636
v 0.042933 0.088798 -0.122636
v -0.028132 0.469018 -0.205217
v -0.028132 0.219891 -0.265240
v 0.033954 0.289765 -0.140578
v -0.090219 0.289765 -0.140578
v -0.088646 -0.018141 0.013784
v -0.256105 0.004336 0.034782
v -0.168080 0.004336 0.162692
v -0.107850 0.149771 0.026999
v -0.267450 0.133786 0.040084
v -0.177085 0.133786 0.171394
v -0.261795 0.553528 0.132941
v -0.167120 0.315211 0.067788
v -0.235487 0.352899 0.175190
v -0.291859 0.352899 0.093276
v 0.097550 0.001379 -0.014299
v 0.016646 0.000000 0.089971
v 0.178453 0.000000 0.089971
v 0.097550 0.124350 0.009313
v 0.016646 0.138531 0.099072
v 0.178453 0.138531 0.099072
v 0.097550 0.401740 0.087827
v 0.097550 0.257200 0.039822
v 0.161610 0.262018 0.095875
v 0.033490 0.262018 0.095875
vn 0.8777 0.1388 -0.4587
vn 0.0000 -0.2611 0.9653
vn -0.8777 0.1388 -0.4587
vn 0.8604 0.1194 -0.4954
vn 0.0000 0.3392 0.9407
vn -0.8604 0.1194 -0.4954
vn -0.8845 -0.0272 -0.4658
vn 0.0000 0.0889 0.9960
vn 0.8845 -0.0272 -0.4658
vn 0.3707 0.0611 -0.9267
vn 0.6129 -0.1116 0.7823
vn -0.9885 0.0611 0.1381
vn 0.4626 0.5504 -0.6950
vn 0.5440 -0.4711 0.6944
vn -0.7856 0.5504 0.2828
vn -0.9576 0.2178 0.1885
vn 0.5837 -0.3229 0.7450
vn 0.4122 0.2178 -0.8847
vn 0.9917 0.1102 -0.0666
vn -0.4234 -0.2210 0.8786
vn -0.5657 0.1102 -0.8172
vn 0.8830 0.4662 -0.0544
vn -0.3783 -0.4907 0.7849
vn -0.5076 0.4662 -0.7246
vn -0.5722 0.2205 -0.7899
vn -0.4083 -0.3396 0.8473
vn 0.9744 0.2205 -0.0446
vn 0.9920 0.1185 -0.0430
vn -0.5965 -0.1370 0.7908
vn -0.2312 0.1185 -0.9657
vn 0.7517 0.6579 0.0460
vn -0.4870 -0.5882 0.6456
vn -0.2508 0.6579 -0.7101
vn -0.1996 0.3677 -0.9082
vn -0.5465 -0.4201 0.7245
vn 0.9281 0.3677 -0.0576
vn 0.8912 0.0513 0.4506
vn -0.8201 -0.0950 0.5643
vn -0.1025 0.0513 -0.9934
vn 0.8564 0.2115 0.4710
vn -0.8237 0.0114 0.5669
vn -0.1339 0.2115 -0.9682
vn -0.1155 0.2120 -0.9704
vn -0.8029 -0.2236 0.5526
vn 0.8651 0.2120 0.4545
vn 0.7629 0.0803 -0.6415
vn 0.0000 -0.0656 0.9978
vn -0.7629 0.0803 -0.6415
vn 0.6279 0.2453 -0.7386
vn 0.0000 0.0575 0.9983
vn -0.6279 0.2453 -0.7386
vn -0.6960 0.1211 -0.7077
vn 0.0000 0.0259 0.9997
vn 0.6960 0.1211 -0.7077
usemtl grass.001
s 1
f 1//1 4//1 6//1 3//1
f 3//2 6//2 5//2 2//2
f 2//3 5//3 4//3 1//3
f 9//4 8//4 7//4
f 10//5 9//5 7//5
f 8//6 10//6 7//6
f 4//7 5//7 10//7 8//7
f 5//8 6//8 9//8 10//8
f 6//9 4//9 8//9 9//9
f 11//10 14//10 16//10 13//10
f 13//11 16//11 15//11 12//11
f 12//12 15//12 14//12 11//12
f 19//13 18//13 17//13
f 20//14 19//14 17//14
f 18//15 20//15 17//15
f 14//16 15//16 20//16 18//16
f 15//17 16//17 19//17 20//17
f 16//18 14//18 18//18 19//18
f 21//19 24//19 26//19 23//19
f 23//20 26//20 25//20 22//20
f 22//21 25//21 24//21 21//21
f 29//22 28//22 27//22
f 30//23 29//23 27//23
f 28//24 30//24 27//24
f 24//25 25//25 30//25 28//25
f 25//26 26//26 29//26 30//26
f 26//27 24//27 28//27 29//27
f 31//28 34//28 36//28 33//28
f 33//29 36//29 35//29 32//29
f 32//30 35//30 34//30 31//30
f 39//31 38//31 37//31
f 40//32 39//32 37//32
f 38//33 40//33 37//33
f 34//34 35//34 40//34 38//34
f 35//35 36//35 39//35 40//35
f 36//36 34//36 38//36 39//36
f 41//1 44//1 46//1 43//1
f 43//2 46//2 45//2 42//2
f 42//3 45//3 44//3 41//3
f 49//4 48//4 47//4
f 50//5 49//5 47//5
f 48//6 50//6 47//6
f 44//7 45//7 50//7 48//7
f 45//8 46//8 49//8 50//8
f 46//9 44//9 48//9 49//9
f 51//37 54//37 56//37 53//37
f 53//38 56//38 55//38 52//38
f 52//39 55//39 54//39 51//39
f 59//40 58//40 57//40
f 60//41 59//41 57//41
f 58//42 60//42 57//42
f 54//43 55//43 60//43 58//43
f 55//44 56//44 59//44 60//44
f 56//45 54//45 58//45 59//45
f 61//46 64//46 66//46 63//46
f 63//47 66//47 65//47 62//47
f 62//48 65//48 64//48 61//48
f 69//49 68//49 67//49
f 70//50 69//50 67//50
f 68//51 70//51 67//51
f 64//52 65//52 70//52 68//52
f 65//53 66//53 69//53 70//53
f 66//54 64//54 68//54 69//54
