# Blender v2.83.0 OBJ File: ''
# www.blender.org
mtllib GrassBunch2.mtl
o GrassBunch2_Circle.024
v -0.084551 -0.003637 0.037178
v 0.048575 0.001506 0.044520
v -0.008708 0.001506 -0.072477
v -0.038172 0.224521 0.014471
v 0.090320 0.205569 0.024607
v 0.032621 0.205569 -0.093239
v 0.229940 0.630237 -0.116800
v 0.057886 0.452587 -0.032560
v 0.122741 0.460813 -0.118743
v 0.165733 0.460813 -0.030935
v -0.034481 -0.002243 -0.076232
v -0.109709 0.000826 0.056042
v 0.040746 0.000826 0.056042
v -0.034481 0.294473 -0.037809
v -0.109670 0.239563 0.082843
v 0.040707 0.239563 0.082843
v -0.034481 0.588659 0.223033
v -0.034481 0.516478 0.071315
v 0.022137 0.479323 0.164646
v -0.091099 0.479323 0.164646
v 0.021252 0.001379 0.020004
v -0.029677 -0.000000 -0.101750
v -0.109337 0.000000 0.039089
v -0.009969 0.158302 0.002345
v -0.045342 0.130139 -0.110610
v -0.125001 0.130139 0.030229
v -0.236622 0.441359 -0.125852
v -0.124569 0.359973 -0.062474
v -0.196505 0.328177 -0.029564
v -0.133429 0.328177 -0.141082
vn -0.8207 0.1102 -0.5606
vn 0.8759 -0.2210 -0.4289
vn -0.0605 0.1102 0.9921
vn -0.7277 0.4662 -0.5031
vn 0.7825 -0.4907 -0.3831
vn -0.0489 0.4662 0.8833
vn -0.0385 0.2205 0.9746
vn 0.8448 -0.3396 -0.4136
vn -0.7934 0.2205 -0.5673
vn 0.8633 0.0611 -0.5009
vn 0.0000 -0.1116 0.9938
vn -0.8633 0.0611 -0.5009
vn 0.7928 0.5504 -0.2618
vn 0.0000 -0.4711 0.8821
vn -0.7928 0.5504 -0.2618
vn -0.8701 0.2178 -0.4422
vn 0.0000 -0.3229 0.9464
vn 0.8701 0.2178 -0.4422
vn 0.1727 0.1185 0.9778
vn -0.8622 -0.1370 -0.4877
vn 0.9270 0.1185 -0.3558
vn 0.0529 0.6579 0.7513
vn -0.7039 -0.5882 -0.3981
vn 0.6711 0.6579 -0.3417
vn 0.8742 0.3677 -0.3170
vn -0.7899 -0.4201 -0.4468
vn 0.1788 0.3677 0.9126
usemtl grass.002
s 1
f 1//1 4//1 6//1 3//1
f 3//2 6//2 5//2 2//2
f 2//3 5//3 4//3 1//3
f 9//4 8//4 7//4
f 10//5 9//5 7//5
f 8//6 10//6 7//6
f 4//7 5//7 10//7 8//7
f 5//8 6//8 9//8 10//8
f 6//9 4//9 8//9 9//9
f 11//10 14//10 16//10 13//10
f 13//11 16//11 15//11 12//11
f 12//12 15//12 14//12 11//12
f 19//13 18//13 17//13
f 20//14 19//14 17//14
f 18//15 20//15 17//15
f 14//16 15//16 20//16 18//16
f 15//17 16//17 19//17 20//17
f 16//18 14//18 18//18 19//18
f 21//19 24//19 26//19 23//19
f 23//20 26//20 25//20 22//20
f 22//21 25//21 24//21 21//21
f 29//22 28//22 27//22
f 30//23 29//23 27//23
f 28//24 30//24 27//24
f 24//25 25//25 30//25 28//25
f 25//26 26//26 29//26 30//26
f 26//27 24//27 28//27 29//27
