# Blender v2.81 (sub 16) OBJ File: 'untitled.blend'
# www.blender.org
mtllib Road_tr.mtl
o Plane.025
v -0.495369 0.000000 -0.501667
v -0.495369 0.000000 -0.875000
v 0.504631 0.000000 -0.875000
v 0.504631 0.000000 -0.501667
v -0.495369 0.003000 0.875000
v 0.504631 0.003000 0.875000
v -0.495369 -0.000000 0.501667
v -0.870369 -0.000000 0.501667
v 0.879631 -0.000000 0.875000
v 0.879631 0.000000 -0.501667
v 0.879631 -0.000000 0.501667
v 0.879631 0.000000 -0.875000
v -0.870369 0.003000 -0.501667
v -0.870369 0.000000 -0.875000
v -0.870369 -0.000000 0.875000
v 0.504631 0.003000 0.501667
vt 0.214367 0.449538
vt 0.785632 0.449538
vt 0.785632 0.571408
vt 0.214368 0.571408
vt 0.214368 0.122013
vt 0.785632 0.122013
vt 0.000143 0.449538
vt 0.000143 0.122013
vt 0.999857 0.122013
vt 0.999857 0.449538
vt 0.403579 0.575702
vt 0.390712 0.708838
vt 0.206538 0.708054
vt 0.219405 0.574918
vt 0.810323 0.575702
vt 0.797457 0.708838
vt 0.613283 0.708054
vt 0.626150 0.574918
vt 0.409911 0.708054
vt 0.422778 0.574918
vt 0.606951 0.575702
vt 0.594084 0.708838
vt 0.003166 0.708054
vt 0.016033 0.574918
vt 0.200207 0.575702
vt 0.187340 0.708839
vt 0.214368 0.000143
vt 0.785632 0.000143
vn 0.0008 1.0000 0.0000
vn 0.0008 1.0000 -0.0010
vn 0.0000 1.0000 0.0000
vn 0.0012 1.0000 0.0000
vn 0.0012 1.0000 -0.0015
vn 0.0040 1.0000 0.0015
vn 0.0040 1.0000 -0.0015
vn -0.0040 1.0000 -0.0040
vn 0.0040 1.0000 -0.0040
vn 0.0080 1.0000 0.0000
vn -0.0015 1.0000 -0.0040
usemtl Material.004
s 1
f 1/1/1 4/2/2 3/3/3 2/4/3
f 7/5/4 16/6/5 4/2/2 1/1/1
f 7/5/4 1/1/1 13/7/6 8/8/6
f 4/2/2 16/6/5 11/9/7 10/10/7
f 5/11/8 7/12/8 8/13/8 15/14/8
f 1/15/9 2/16/9 14/17/9 13/18/9
f 3/19/3 4/20/3 10/21/3 12/22/3
f 16/23/10 6/24/10 9/25/10 11/26/10
f 5/27/11 6/28/11 16/6/11 7/5/11
