# Blender v2.81 (sub 16) OBJ File: 'untitled.blend'
# www.blender.org
mtllib Road_sq.mtl
o Plane.023
v -0.500000 0.000000 -0.501667
v -0.500000 0.000000 -0.875000
v 0.500000 0.000000 -0.875000
v 0.500000 -0.000000 0.501667
v 0.500000 -0.000000 0.875000
v -0.875000 -0.000000 0.501667
v -0.875000 0.000000 -0.501667
v -0.500000 0.003000 0.875000
v -0.500000 0.003000 0.501667
v 0.875000 -0.000000 0.501667
v 0.875000 0.003000 -0.501667
v 0.875000 0.000000 -0.875000
v -0.875000 0.000000 -0.875000
v -0.875000 -0.000000 0.875000
v 0.875000 0.003000 0.875000
v 0.500000 0.006000 -0.501667
vt 0.214367 0.449538
vt 0.785632 0.449538
vt 0.785632 0.571408
vt 0.214368 0.571408
vt 0.214368 0.000143
vt 0.785632 0.000143
vt 0.785632 0.122013
vt 0.214368 0.122013
vt 0.000143 0.449538
vt 0.000143 0.122013
vt 0.999857 0.122013
vt 0.999857 0.449538
vt 0.403579 0.575702
vt 0.390712 0.708838
vt 0.206538 0.708054
vt 0.219405 0.574918
vt 0.810323 0.575702
vt 0.797457 0.708838
vt 0.613283 0.708054
vt 0.626150 0.574918
vt 0.409911 0.708054
vt 0.422778 0.574918
vt 0.606951 0.575702
vt 0.594084 0.708838
vt 0.003166 0.708054
vt 0.016033 0.574918
vt 0.200207 0.575702
vt 0.187340 0.708839
vn -0.0028 1.0000 -0.0027
vn -0.0002 1.0000 -0.0007
vn -0.0030 1.0000 -0.0080
vn 0.0030 1.0000 0.0000
vn 0.0018 1.0000 0.0020
vn -0.0008 1.0000 0.0000
vn -0.0040 1.0000 -0.0015
vn 0.0040 1.0000 0.0045
vn -0.0080 1.0000 0.0000
vn 0.0000 1.0000 0.0000
vn 0.0040 0.9999 -0.0121
vn -0.0040 1.0000 -0.0040
usemtl Material.002
s 1
f 1/1/1 16/2/2 3/3/3 2/4/3
f 8/5/4 5/6/4 4/7/5 9/8/6
f 9/8/6 4/7/5 16/2/2 1/1/1
f 9/8/6 1/1/1 7/9/7 6/10/7
f 16/2/2 4/7/5 10/11/8 11/12/8
f 8/13/9 9/14/9 6/15/9 14/16/9
f 1/17/10 2/18/10 13/19/10 7/20/10
f 3/21/11 16/22/11 11/23/11 12/24/11
f 4/25/12 5/26/12 15/27/12 10/28/12
