# Blender v2.81 (sub 16) OBJ File: 'untitled.blend'
# www.blender.org
mtllib Road.mtl
o Plane.022
v -0.477496 0.000000 -1.003324
v 0.525828 -0.000000 1.003324
v 0.842090 -0.000000 1.003324
v 0.525828 0.004290 -1.003324
v -0.793758 0.000000 -1.003324
v -0.477496 0.002060 1.003324
v 0.842090 0.002060 -1.003324
v -0.793758 0.002060 1.003324
vt 0.000155 0.624821
vt 0.000155 0.000155
vt 0.624821 0.000155
vt 0.988337 0.544336
vt 0.634600 0.555601
vt 0.636638 0.021415
vt 0.544336 0.636639
vt 0.555601 0.990376
vt 0.021414 0.988337
vt 0.624821 0.624821
vt 0.990375 0.010150
vt 0.010150 0.634600
vn -0.0012 1.0000 0.0001
vn 0.0010 1.0000 -0.0010
vn 0.0004 1.0000 0.0005
vn 0.0000 1.0000 -0.0010
vn 0.0063 1.0000 0.0020
vn 0.0014 1.0000 0.0021
vn 0.0000 1.0000 0.0010
usemtl Material.001
s 1
f 1/1/1 6/2/2 2/3/3
f 8/4/4 6/5/2 1/6/1
f 7/7/5 4/8/6 2/9/3
f 1/1/1 2/3/3 4/10/6
f 8/4/4 1/6/1 5/11/4
f 7/7/5 2/9/3 3/12/7
